# xmcd
#
# Track frame offsets: 
#        150
#        24213
#        44656
#        64307
#        87167
#        105989
#        128246
#        149039
#        158177
#        182019
#        198723
#        214502
#        228347
#        242282
#        261467
#        277651
#        291757
#        304748
#
# Disc length: 4267 seconds
#
# Revision: 1
# Processed by: cddbd v1.5.2PL0 Copyright (c) Steve Scherf et al.
# Submitted via: ExactAudioCopyFreeDBPlugin 1.0
#
DISCID=0210a912
DTITLE=Various Artist - De Lage Landenlijst 3 [CD2-2]
DYEAR=2018
DGENRE=Chanson
TTITLE0=Jan De Wilde - De fanfare van honger en dorst  (1990)
TTITLE1=Boudewijn de Groot - Avond  (1996)
TTITLE2=Yevgueni - Als ze lacht  (2004)
TTITLE3=Peter Koelewijn - KL 204 (Als ik God was)  (1977)
TTITLE4=Louis Neefs - Mijn vriend Benjamin  (1971)
TTITLE5=Wim Sonneveld - Margootje  (1965)
TTITLE6=Frank Vander Linden - Ik dacht aan een vrouw  (2017)
TTITLE7=Della Bosiers - Fleur de Buda  (1971)
TTITLE8=De Dijk - Recht in de ogen  (2005)
TTITLE9=De Kreuners - Zij heeft stijl  (1981)
TTITLE10=De Jeugd Van Tegenwoordig - Deze donkere jongen komt zo hard,
TTITLE10=De Game gaat sluiten  (2008)
TTITLE11=Flip Kowlier - Kwestie van organisatie  (2001)
TTITLE12=Dorus - Twee motten  (1957)
TTITLE13=Fixkes - Alles komt terug  (2007)
TTITLE14=Robert Long - Thorbeckeplein  (1977)
TTITLE15=Wigbert - Rob  (1991)
TTITLE16=Hannelore Bedert - Janker  (2008)
TTITLE17=Noordkaap - Ik hou van u  (1995)
EXTD=
EXTT0=
EXTT1=
EXTT2=
EXTT3=
EXTT4=
EXTT5=
EXTT6=
EXTT7=
EXTT8=
EXTT9=
EXTT10=
EXTT11=
EXTT12=
EXTT13=
EXTT14=
EXTT15=
EXTT16=
EXTT17=
PLAYORDER=
